<?xml version="1.0" encoding="utf-8"?>
<!-- Generator: Adobe Illustrator 26.0.2, SVG Export Plug-In . SVG Version: 6.00 Build 0)  -->
<svg version="1.1" id="Layer_1" xmlns="http://www.w3.org/2000/svg" xmlns:xlink="http://www.w3.org/1999/xlink" x="0px" y="0px"
	 viewBox="0 0 300 90" style="enable-background:new 0 0 300 90;" xml:space="preserve">
<style type="text/css">
	.st0{fill:#005285;}
	.st1{fill:#FFFFFF;}
	.st2{fill:#C11330;}
	.st3{fill:#BDBFC1;}
	.st4{fill:#0078AB;}
	.st5{fill:#5E9432;}
</style>
<g>
	<g>
		<g>
			<g>
				<g>
					<g>
						<path class="st0" d="M105,12.7h7.5v1.4h-2.4v8.6c0,4.1,2,5.9,4.5,5.9c2.4,0,4.5-1.5,4.5-6.1v-8.4h-2.3v-1.4h7v1.4h-2.3v8.8
							c0,4.6-2.5,7.1-7,7.1c-4.2,0-7.2-2-7.2-7.6v-8.3H105V12.7z"/>
					</g>
					<g>
						<path class="st0" d="M126.4,28.2c0,1-0.8,1.8-1.8,1.8c-1,0-1.8-0.8-1.8-1.8c0-1,0.8-1.8,1.8-1.8
							C125.6,26.4,126.4,27.2,126.4,28.2z"/>
					</g>
					<g>
						<path class="st0" d="M130,24.6h1.4v2.2c1.1,1.4,2.3,2,3.4,2c1.6,0,2.8-1.2,2.8-2.7c0-2.9-4-3.4-6.3-5.7
							c-1.1-1.1-1.5-2.3-1.5-3.4c0-2.2,1.9-4.4,4.8-4.4c1.2,0,2.3,0.2,3.3,0.9v-0.9h1.4V17H138v-1.8c-0.7-0.9-1.8-1.5-3-1.5
							c-1.9,0-2.7,1.1-2.7,2.5c0,2.7,3.9,3.1,6.4,5.5c1.1,1.1,1.5,2,1.5,3.4c0,2.9-2,4.9-5.1,4.9c-1.3,0-2.3-0.4-3.6-1.2v1.2H130
							V24.6z"/>
					</g>
					<g>
						<path class="st0" d="M145.6,28.2c0,1-0.8,1.8-1.8,1.8c-1,0-1.8-0.8-1.8-1.8c0-1,0.8-1.8,1.8-1.8
							C144.8,26.4,145.6,27.2,145.6,28.2z"/>
					</g>
				</g>
				<g>
					<g>
						<g>
							<path class="st0" d="M106.9,44.5c1.4-1.3,3.1-2,4.5-2c2.3,0,3.7,1.6,3.7,4.2v4.9c0,1.2,0.5,1.9,1.2,1.9c0.2,0,1-0.1,1.2-0.2
								v0.8c-0.9,0.6-1.8,1-2.6,1c-0.9,0-1.5-0.5-2.2-1.8c-1.4,1.1-2.5,1.8-3.5,1.8c-1.6,0-2.8-1.4-2.8-3.1c0-1.8,1-2.8,3.3-3.3
								l2.6-0.7v-1.6c0-1.4-0.4-2.4-2-2.4c-0.9,0-1.9,0.4-3.4,1.3L106.9,44.5z M109,51.6c0,0.9,0.7,1.6,1.5,1.6
								c0.6,0,1.2-0.3,1.9-0.9v-3.2C110,49.7,109,50.5,109,51.6z"/>
						</g>
						<g>
							<path class="st0" d="M118.4,53.6h2.2V44h-2.2v-1.2h4.8v1.3c1.4-1,2.8-1.7,4.4-1.7c1.9,0,3.3,1.2,3.3,3.5v7.6h2.1v1.2h-6.6
								v-1.2h1.9v-7c0-1.6-0.9-2.5-2.1-2.5c-0.9,0-2,0.5-3,1.3v8.2h2v1.2h-6.8V53.6z"/>
						</g>
						<g>
							<path class="st0" d="M142.4,53.6h-1.1c-2.8,0-4.8-1.3-4.8-5c0-2.9,1.2-4.6,3.2-4.6c0.9,0,1.9,0.5,2.8,1.3V53.6z M140.3,37.2
								h2.1V44c-1.2-1-2.4-1.5-3.6-1.5c-2.9,0-5.3,2.8-5.3,6.1c0,3.8,2.7,6.1,6.8,6.1h6.8v-1.2H145V36h-4.7V37.2z"/>
						</g>
					</g>
					<g>
						<g>
							<path class="st0" d="M156.4,53.3h2.4V39.1h-2.4v-1.4h7.5v1.4h-2.4v14.2h2.4v1.4h-7.5V53.3z"/>
						</g>
						<g>
							<path class="st0" d="M165.6,53.6h2.1V44h-2.1v-1.2h4.7v1.4c1.8-1,3.2-1.7,4.7-1.7c1.4,0,2.5,0.7,2.9,2c1.2-0.9,3.2-2,4.8-2
								c2.2,0,3.4,1.4,3.4,4v7.1h2.1v1.2h-6.7v-1.2h2v-6.3c0-2-0.7-3-2.2-3c-0.9,0-2.1,0.5-3.1,1.3v8.1h2.1v1.2h-6.7v-1.2h2v-5.9
								c0-2-0.3-3.4-2.1-3.4c-1.1,0-1.8,0.5-3.2,1.3v8.1h2v1.2h-6.8V53.6z"/>
						</g>
						<g>
							<path class="st0" d="M189.3,53.6h2.1V44h-2.1v-1.2h4.7v1.4c1.8-1,3.2-1.7,4.7-1.7c1.4,0,2.5,0.7,2.9,2c1.2-0.9,3.2-2,4.8-2
								c2.2,0,3.4,1.4,3.4,4v7.1h2.1v1.2h-6.7v-1.2h2v-6.3c0-2-0.7-3-2.2-3c-0.9,0-2.1,0.5-3.1,1.3v8.1h2.1v1.2h-6.7v-1.2h2v-5.9
								c0-2-0.3-3.4-2.1-3.4c-1.1,0-1.8,0.5-3.2,1.3v8.1h2v1.2h-6.8V53.6z"/>
						</g>
						<g>
							<path class="st0" d="M213,53.6h2.1V44H213v-1.2h4.7v10.7h2v1.2H213V53.6z M217.7,39.5c0,0.9-0.7,1.6-1.6,1.6
								c-0.9,0-1.6-0.7-1.6-1.6c0-0.9,0.7-1.6,1.6-1.6C217,37.9,217.7,38.7,217.7,39.5z"/>
						</g>
						<g>
							<path class="st0" d="M223.4,47c0-2.2,1-3.5,2.6-3.5c1.6,0,2.5,1.3,2.5,3.6c0,2.2-1,3.5-2.5,3.5
								C224.4,50.6,223.4,49.3,223.4,47z M232.1,42.9h-3.7c-0.4,0-0.7-0.1-1.1-0.2c-0.4-0.1-0.9-0.2-1.6-0.2c-3,0-5,1.8-5,4.6
								c0,2.3,1.3,3.8,3.9,4.5v0.1l-0.4,0.1c-1.4,0.4-2,1-2,1.9c0,0.7,0.5,1.4,1.5,2c-2.4,0.8-3.5,1.8-3.5,3c0,1.5,2.1,3.3,5.9,3.3
								c3.6,0,6-1.5,6-3.9c0-0.7-0.2-1.3-0.8-1.9c-1.8-1.8-6.5-1.8-6.5-3.2c0-0.2,0.1-0.2,0.2-0.4c0.9-0.9,3-0.2,5.1-2.3
								c0.8-0.8,1.3-2,1.3-3.1c0-1.1-0.4-2-1.2-2.9h2.1V42.9z M224.6,56c3.8,1.1,5.1,1.7,5.1,2.7c0,0.5-0.4,1-0.9,1.2
								c-0.6,0.2-1.7,0.4-2.7,0.4c-2,0-3.4-0.8-3.4-2C222.7,57.4,223.2,56.9,224.6,56z"/>
						</g>
						<g>
							<path class="st0" d="M233.3,53.6h2.1V44h-2.1v-1.2h4.8v2h0.1c1.4-1.8,2.1-2.3,2.9-2.3c0.7,0,1.3,0.3,2,1.1
								c-0.2,1.2-0.6,2.2-1.1,2.9c-0.7-1.3-1.1-1.7-1.9-1.7c-0.8,0-1.4,0.5-2,1.4v7.3h2.1v1.2h-6.9V53.6z"/>
						</g>
						<g>
							<path class="st0" d="M249.8,49.1v3.2c-0.7,0.6-1.4,0.9-1.9,0.9c-0.9,0-1.5-0.7-1.5-1.6C246.4,50.4,247.3,49.7,249.8,49.1z
								 M244.5,45.3c1.4-0.9,2.4-1.3,3.4-1.3c1.6,0,2,1,2,2.4V48l-2.6,0.7c-2.3,0.6-3.3,1.6-3.3,3.3c0,1.7,1.2,3.1,2.8,3.1
								c1,0,2.1-0.7,3.5-1.8c0.6,1.3,1.3,1.8,2.2,1.8c0.8,0,1.7-0.3,2.6-1v-0.8c-0.3,0.1-1,0.2-1.2,0.2c-0.7,0-1.2-0.7-1.2-1.9v-4.9
								c0-2.6-1.4-4.2-3.7-4.2c-1.4,0-3.1,0.7-4.5,2L244.5,45.3z"/>
						</g>
						<g>
							<path class="st0" d="M254.6,44l4.3-4.4v3.2h3.3V44h-3.3v6.9c0,1.9,0.5,2.8,1.6,2.8c1.1,0,1.7-0.9,2-0.9
								c0.2,0,0.3,0.2,0.3,0.4c0,0.3-1.1,2-3.1,2c-2.2,0-3.4-1.4-3.4-4V44H254.6z"/>
						</g>
						<g>
							<path class="st0" d="M263.9,53.6h2.1V44h-2.1v-1.2h4.7v10.7h2v1.2h-6.7V53.6z M268.6,39.5c0,0.9-0.7,1.6-1.6,1.6
								c-0.9,0-1.6-0.7-1.6-1.6c0-0.9,0.7-1.6,1.6-1.6C267.9,37.9,268.6,38.7,268.6,39.5z"/>
						</g>
						<g>
							<path class="st0" d="M274.3,48.8c0-3.2,1.4-5.1,3.6-5.1c2.3,0,3.6,1.9,3.6,5.1c0,3.2-1.3,5.1-3.6,5.1
								C275.7,53.9,274.3,52,274.3,48.8z M271.4,48.8c0,3.5,2.9,6.3,6.6,6.3c3.7,0,6.6-2.8,6.6-6.3c0-3.5-2.9-6.3-6.6-6.3
								C274.3,42.5,271.4,45.3,271.4,48.8z"/>
						</g>
						<g>
							<path class="st0" d="M285.4,53.6h2.2V44h-2.2v-1.2h4.8v1.3c1.4-1,2.8-1.7,4.4-1.7c1.9,0,3.3,1.2,3.3,3.5v7.6h2.1v1.2h-6.6
								v-1.2h1.9v-7c0-1.6-0.9-2.5-2.1-2.5c-0.9,0-2,0.5-3,1.3v8.2h2v1.2h-6.7V53.6z"/>
						</g>
					</g>
				</g>
				<g>
					<g>
						<path class="st0" d="M167.3,28c-1.7,1.4-3.8,2-6.2,2c-5.1,0-8.7-3.9-8.7-8.7c0-5.2,3.8-9,8.9-9c1.4,0,2.8,0.3,4.1,0.7l0.2-1
							h1.1v5h-1.3c-0.5-2.1-2-3.3-4.2-3.3c-3.3,0-5.5,2.9-5.5,7.2c0,4.6,2.5,7.7,6.2,7.7c1.7,0,3.4-0.6,5.3-2.1V28z"/>
					</g>
					<g>
						<path class="st0" d="M168.8,28.6h2.1V19h-2.1v-1.2h4.7v10.7h2v1.2h-6.7V28.6z M173.5,14.5c0,0.9-0.7,1.6-1.6,1.6
							c-0.9,0-1.6-0.7-1.6-1.6c0-0.9,0.7-1.6,1.6-1.6C172.8,12.9,173.5,13.6,173.5,14.5z"/>
					</g>
					<g>
						<path class="st0" d="M176.8,19l4.3-4.4v3.2h3.3V19H181v6.9c0,1.9,0.5,2.8,1.6,2.8c1.1,0,1.7-0.9,2-0.9c0.2,0,0.3,0.2,0.3,0.4
							c0,0.3-1.1,2-3.1,2c-2.2,0-3.4-1.4-3.4-4V19H176.8z"/>
					</g>
					<g>
						<path class="st0" d="M186,28.6h2.1V19H186v-1.2h4.7v10.7h2v1.2H186V28.6z M190.8,14.5c0,0.9-0.7,1.6-1.6,1.6
							c-0.9,0-1.6-0.7-1.6-1.6c0-0.9,0.7-1.6,1.6-1.6C190,12.9,190.8,13.6,190.8,14.5z"/>
					</g>
					<g>
						<path class="st0" d="M194.1,17.8h9.9v0.5l-6.8,10.3h6.1v-2.1h1v3.2h-10.7v-0.5l6.7-10.3h-5.3v1.6h-1V17.8z"/>
					</g>
					<g>
						<path class="st0" d="M208.5,21.7c0.2-2,0.8-3,2.4-3c1.5,0,2.5,1.1,2.7,3H208.5z M216.4,22.8c-0.5-3.4-2.3-5.3-5.3-5.3
							c-3.3,0-5.4,2.3-5.4,5.9c0,3.3,2.2,6.6,6.2,6.6c1.6,0,2.5-0.3,4.5-1.5l0.2-1.3c-1.4,0.9-2.7,1.4-4,1.4c-2.5,0-4.1-2.4-4.1-5.8
							H216.4z"/>
					</g>
					<g>
						<path class="st0" d="M217.7,28.6h2.2V19h-2.2v-1.2h4.8v1.3c1.4-1,2.8-1.7,4.4-1.7c1.9,0,3.3,1.2,3.3,3.5v7.6h2.1v1.2h-6.6
							v-1.2h1.9v-7c0-1.6-0.9-2.5-2.1-2.5c-0.9,0-2,0.5-3,1.3v8.2h2v1.2h-6.7V28.6z"/>
					</g>
					<g>
						<path class="st0" d="M233.6,26h0.6c0.4,1.8,1.7,2.8,3.1,2.8c1.3,0,2.1-0.6,2.1-1.6c0-1.9-2.8-1.9-4.8-3.8
							c-0.8-0.8-1.1-1.7-1.1-2.5c0-1.9,1.8-3.5,3.9-3.5c0.8,0,1.4,0.2,2.4,0.7v-0.7h0.9v3.2h-0.7c-0.3-1.3-1.3-2-2.4-2
							c-1,0-1.8,0.7-1.8,1.6c0,1.7,3.1,2.2,4.9,4c0.7,0.7,1,1.5,1,2.3c0,2.1-1.7,3.5-4,3.5c-1.1,0-1.8-0.2-3-0.9l-0.2,0.8h-0.8V26z"
							/>
					</g>
					<g>
						<path class="st0" d="M242.7,28.6h2.2V12.2h-2.2V11h4.8v8.2c1.2-1,2.8-1.7,4.4-1.7c1.7,0,3.3,1.1,3.3,3.6v7.5h2v1.2h-6.7v-1.2
							h2v-7c0-1.6-0.9-2.5-2.2-2.5c-0.8,0-1.8,0.4-2.9,1.2v8.3h1.9v1.2h-6.7V28.6z"/>
					</g>
					<g>
						<path class="st0" d="M258.4,28.6h2.1V19h-2.1v-1.2h4.7v10.7h2v1.2h-6.7V28.6z M263.2,14.5c0,0.9-0.7,1.6-1.6,1.6
							c-0.9,0-1.6-0.7-1.6-1.6c0-0.9,0.7-1.6,1.6-1.6C262.5,12.9,263.2,13.6,263.2,14.5z"/>
					</g>
					<g>
						<path class="st0" d="M271.2,20.3c1-1.2,1.7-1.6,2.6-1.6c2,0,3.3,2.1,3.3,5.5c0,2.6-1.1,4.6-3.1,4.6c-1.1,0-2.2-0.7-2.8-1.7
							V20.3z M266.4,36.7h6.8v-1.2h-2.1v-6.4c0.9,0.7,1.9,1,3.1,1c4.4,0,5.8-3.6,5.8-6.5c0-4.4-3-6.1-5.4-6.1
							c-0.7,0-1.3,0.1-1.9,0.3c-0.6,0.2-1.1,0.6-1.7,1.2v-1.2h-4.7V19h2.1v16.5h-2.1V36.7z"/>
					</g>
				</g>
				<g>
					<g>
						<g>
							<path class="st0" d="M106.6,74.5h1.4v2.2c1.1,1.4,2.3,2,3.4,2c1.6,0,2.8-1.2,2.8-2.7c0-2.9-4-3.4-6.3-5.7
								c-1.1-1.1-1.5-2.3-1.5-3.4c0-2.2,1.9-4.4,4.8-4.4c1.2,0,2.3,0.2,3.3,0.9v-0.9h1.4v4.6h-1.4v-1.8c-0.7-0.9-1.8-1.5-3-1.5
								c-1.9,0-2.7,1.1-2.7,2.4c0,2.7,3.9,3.1,6.4,5.5c1.1,1.1,1.5,2,1.5,3.4c0,2.9-2.1,4.9-5.1,4.9c-1.3,0-2.3-0.4-3.6-1.2V80h-1.4
								V74.5z"/>
						</g>
						<g>
							<path class="st0" d="M121.3,71.6c0.2-2,0.8-3,2.4-3c1.5,0,2.4,1.1,2.7,3H121.3z M129.2,72.8c-0.5-3.4-2.3-5.3-5.3-5.3
								c-3.3,0-5.4,2.3-5.4,5.9c0,3.3,2.2,6.6,6.2,6.6c1.6,0,2.5-0.3,4.5-1.5l0.2-1.3c-1.4,0.9-2.7,1.4-4,1.4
								c-2.5,0-4.1-2.4-4.1-5.8H129.2z"/>
						</g>
						<g>
							<path class="st0" d="M130.5,78.5h2.1v-9.6h-2.1v-1.2h4.8v2h0.1c1.4-1.8,2.1-2.3,2.9-2.3c0.7,0,1.3,0.3,2,1.1
								c-0.2,1.2-0.6,2.2-1.1,2.9c-0.7-1.3-1.1-1.7-1.9-1.7c-0.8,0-1.4,0.5-2,1.4v7.3h2.1v1.2h-6.9V78.5z"/>
						</g>
						<g>
							<path class="st0" d="M141.1,67.8h6v1.2h-1.6l2.8,6.7l2.4-6.7h-1.7v-1.2h4.6v1.2H152l-4,11h-0.5l-4.7-11h-1.6V67.8z"/>
						</g>
						<g>
							<path class="st0" d="M154.8,78.5h2.1v-9.6h-2.1v-1.2h4.7v10.7h2v1.2h-6.7V78.5z"/>
						</g>
						<g>
							<path class="st0" d="M172.5,71.2h-0.8c-0.3-1.7-1.6-2.6-2.8-2.6c-1.9,0-3.2,1.4-3.2,4.4c0,3.5,1.3,5.4,3.8,5.4
								c1.9,0,3.1-1.3,3.4-1.3c0.2,0,0.4,0.5,0.4,0.7c0,0.5-2,2.2-4.6,2.2c-3.3,0-5.9-2.8-5.9-6.6c0-3.5,2.4-6,5.7-6
								c1,0,1.7,0.2,3.1,0.7l0.2-0.7h0.8V71.2z"/>
						</g>
						<g>
							<path class="st0" d="M177.5,71.6c0.2-2,0.8-3,2.4-3c1.5,0,2.4,1.1,2.7,3H177.5z M185.3,72.8c-0.5-3.4-2.3-5.3-5.3-5.3
								c-3.3,0-5.4,2.3-5.4,5.9c0,3.3,2.2,6.6,6.2,6.6c1.6,0,2.5-0.3,4.5-1.5l0.2-1.3c-1.4,0.9-2.7,1.4-4,1.4
								c-2.5,0-4.1-2.4-4.1-5.8H185.3z"/>
						</g>
						<g>
							<path class="st0" d="M187.2,76h0.6c0.4,1.8,1.7,2.8,3.1,2.8c1.3,0,2.1-0.6,2.1-1.6c0-1.9-2.8-1.9-4.8-3.8
								c-0.8-0.8-1.1-1.7-1.1-2.5c0-1.9,1.8-3.5,3.9-3.5c0.8,0,1.4,0.2,2.4,0.7v-0.7h0.9v3.2h-0.7c-0.3-1.3-1.3-2-2.4-2
								c-1,0-1.8,0.7-1.8,1.6c0,1.7,3.1,2.2,4.9,4c0.7,0.7,1,1.5,1,2.3c0,2.1-1.7,3.5-4,3.5c-1.1,0-1.8-0.2-3-0.9l-0.2,0.8h-0.8V76z
								"/>
						</g>
					</g>
					<g>
						<path class="st0" d="M159.5,64.4c0,0.9-0.7,1.6-1.6,1.6c-0.9,0-1.6-0.7-1.6-1.6c0-0.9,0.7-1.6,1.6-1.6
							C158.8,62.8,159.5,63.6,159.5,64.4z"/>
					</g>
				</g>
			</g>
		</g>
	</g>
	<g>
		<path class="st1" d="M45,0.2C20.3,0.2,0.2,20.3,0.2,45c0,24.7,20,44.8,44.8,44.8c24.7,0,44.8-20,44.8-44.8
			C89.8,20.3,69.7,0.2,45,0.2z"/>
		<g>
			<g>
				<g>
					<path class="st2" d="M72.3,28.8c-0.5,0.2-1,0.3-1.5,0.4c2.8,4.6,4.4,10,4.4,15.7c0,16.7-13.5,30.3-30.3,30.3
						c-16.7,0-30.3-13.5-30.3-30.3c0-6,1.8-11.6,4.8-16.3c-0.5-0.1-1-0.3-1.4-0.5C15,33,13.3,38.8,13.3,45
						c0,17.5,14.2,31.8,31.8,31.8c17.5,0,31.8-14.2,31.8-31.8C76.8,39.1,75.1,33.6,72.3,28.8z"/>
				</g>
				<g>
					<path class="st2" d="M27.4,20.4c5-3.5,11-5.6,17.6-5.6c7.3,0,14,2.6,19.3,6.9c0.6-0.2,1.2-0.3,1.8-0.5c-5.6-5-13-8-21-8
						c-7.2,0-13.9,2.4-19.2,6.5c0.3,0.1,0.5,0.2,0.8,0.3C26.8,20.1,27.1,20.3,27.4,20.4z"/>
				</g>
			</g>
			<g>
				<path class="st3" d="M45,0C20.1,0,0,20.1,0,45c0,24.9,20.1,45,45,45c24.9,0,45-20.1,45-45C90,20.1,69.9,0,45,0z M45,87.2
					C21.7,87.2,2.8,68.3,2.8,45C2.8,21.7,21.7,2.8,45,2.8c23.3,0,42.2,18.9,42.2,42.2C87.2,68.3,68.3,87.2,45,87.2z"/>
			</g>
			<g>
				<path class="st0" d="M34.1,36c-0.6-0.3-1.2-0.7-1.8-1.3C30.4,33,30,31.1,30.5,29c0.3-1.3,0.9-1.9,0.7-3.2
					c-0.1-0.8-0.6-1.4-1.2-1.9c-1.3-1.2-2.8-2-5.1-2.8c-1.4-0.5-5.5-1.7-7.3-3.4c-0.4,1.2,0.5,2.8,1.5,3c-0.9,0.1-1.7,0.6-2.1,1.1
					c0.7,0.8,2.1,1.6,3.2,1.7c-0.5,0.4-1.2,1.1-1.4,1.5c1,0.5,2.5,1,3.8,0.9c-0.5,0.4-0.9,0.9-1.2,1.4c0.8,0.4,2.4,0.9,3.9,1
					c-0.6,0.3-1.4,1.2-1.8,1.8c0.8,0.4,2.7,0.6,3.8,0.7c-0.8,0.4-1.7,1.3-2.1,2.1c0.8,0.4,2.4,0.8,3.7,0.8c-0.6,0.6-1,1.3-1.3,2
					c1,0.2,2,0.2,3.1,0c-0.7,0.9-1,2.1-1.1,2.9c1,0,2.2-0.2,3.1-0.8c-0.2,0.7-0.2,1.7,0.2,2.4c0.4-0.1,0.8-0.2,1.3-0.5
					C34.2,38.5,34.2,37.1,34.1,36z"/>
			</g>
			<g>
				<path class="st0" d="M72.9,20c-1.8,1.6-4.7,2.1-7.7,3.1c-2.3,0.7-3.7,1.2-5.7,2.8c-0.6,0.5-1.1,1.1-1.1,2.3
					c0.1,1.3,0.3,1.9,0.3,3.7c0,1.3-0.4,2.3-1,2.9c-0.6,0.6-1.3,1.2-2,1.6c0,1.1-0.1,2.2-0.2,3.5c0.5,0.3,1.1,0.5,1.4,0.6
					c0.3-0.7,0.4-1.7,0.2-2.4c0.9,0.5,2.2,0.8,3.1,0.8c-0.1-0.9-0.4-2-1.1-2.9c1.2,0.2,2.2,0.2,3.1,0c-0.2-0.7-0.7-1.4-1.3-2
					c1.3,0,2.8-0.4,3.7-0.8c-0.5-0.8-1.3-1.6-2.1-2.1c1.1-0.1,3-0.3,3.9-0.7c-0.4-0.6-1.3-1.5-1.8-1.8c1.5-0.1,3.1-0.7,3.9-1
					c-0.3-0.5-0.7-1-1.2-1.4c1.4-0.1,2.8-0.4,3.8-0.9c-0.2-0.4-0.9-1.2-1.4-1.5C72.9,22.6,72.9,21.1,72.9,20z"/>
			</g>
			<g>
				<path class="st0" d="M60.2,23.2c-4.3-3-9.5-4.7-15.2-4.7c-5.1,0-9.9,1.5-14,4c1.1,0.8,1.7,1.7,1.8,2.6c0.1,0.8,0.2,1.7-0.2,3.1
					c-0.5,1.5-0.7,3,0.3,4.5c1.1,1.5,2.5,2.2,3.7,2.4l0,0c1.5-0.3,3.2-0.5,4.9-0.6l0,0c0.2-0.7,0.9-1.3,1.5-1.8
					c0.9-0.7,0.7-1.4,0.5-1.9c-0.2-0.4-0.5-0.7-1-1c-0.4-0.2-2-0.4-1.9,0.6c-0.3-0.4-0.5-0.8-0.3-1.5c0.2-0.9,1.6-1.1,2-1.1
					c-0.3-0.2-0.1-0.6,0.5-0.8c0.8-0.2,1.5-0.2,2.2-0.2c1.4,0,1.6,0.4,2.4,1c0.9,0.8,2,1,2.5,0.6c-0.3,0.7-1.4,1.1-2,1
					c0.3,1,0.4,1.9,0.6,3c0.1,0.5,0.2,1.3,0.3,2c1.9,0.2,3.8,0.4,5.5,0.7l0,0c0.7-0.2,1.4-0.6,2.1-1.4c0.6-0.7,1.2-1.6,0.9-3.9
					c-0.1-0.6-0.4-2.3-0.3-3C56.9,25.2,58.1,24.1,60.2,23.2z"/>
			</g>
			<g>
				<path class="st0" d="M42.5,27.9c0.3,0.2,0.4,0.2,0.5,0.2c0,0,0.1,0.1,0.1,0.1c0.1,0,0.1,0.1,0.1,0.1c0.1,0,0.4-0.2,0.7-0.3
					c0.3-0.1,0.7-0.2,0.7-0.2C43.4,27.6,43.2,28,42.5,27.9z"/>
			</g>
			<g>
				<g>
					<path class="st4" d="M44.3,48.9l-0.5-0.3l-0.3-0.9l-0.8-0.3l-0.9-0.8l-0.5,0.6l-0.8,0.2L40,48.1l-0.6,0.7l-0.8,0.4l-0.6,1
						l-0.3,0.4l-0.6,0.4l-0.3-0.3L36.4,51L36,51.8c-0.2-0.6-0.4-1-0.4-2c-0.1-1.7-0.3-3.9-0.4-6.2c2.9-0.6,6.5-1,9.5-1.1v6.8
						C44.5,49.3,44.4,49.3,44.3,48.9z"/>
				</g>
				<g>
					<path class="st5" d="M44.7,52.2h-8.5c0.1,0.3,0.3,0.5,0.4,0.7c0.6,0.9,1.5,1.5,2.6,1.8c1.5,0.5,2.5,0.8,3.2,1l0.8,0.3
						c0.7,0.2,1.2,0.5,1.5,0.9V52.2z"/>
				</g>
				<g>
					<path class="st0" d="M53.7,48.9c0.2-0.2,0.5-0.4,0.9-0.5c0-0.8,0.1-1.6,0.2-2.5c-0.1,0.1-0.2,0.1-0.3,0.2
						c-0.4,0.3-0.9,0.7-1.8,0.7c-0.8,0-1.4-0.3-1.8-0.6c-0.4-0.2-0.6-0.4-1.1-0.4c-0.5,0-0.9,0.2-1.3,0.5c-0.5,0.3-1,0.6-1.6,0.6
						c-0.6,0-1.1-0.2-1.5-0.4v2.4c0.1,0,0.2,0.1,0.3,0.2c0.4,0.2,0.7,0.4,1.2,0.4c0.3,0,0.6-0.2,1-0.4c0.5-0.3,1.1-0.6,1.8-0.6
						c0.7,0,1.2,0.3,1.6,0.6c0.4,0.2,0.7,0.4,1.2,0.4C53.1,49.4,53.3,49.2,53.7,48.9z"/>
				</g>
				<g>
					<path class="st0" d="M46.8,54.4c-0.6,0-1.1-0.2-1.5-0.4v2.9c0.3-0.3,0.8-0.6,1.5-0.9l0.8-0.3c0.7-0.2,1.7-0.5,3.2-1
						c0.4-0.1,0.8-0.3,1.2-0.5c-0.5-0.1-0.9-0.3-1.3-0.6c-0.4-0.2-0.6-0.4-1.1-0.4c-0.5,0-0.9,0.2-1.3,0.5
						C48,54,47.4,54.4,46.8,54.4z"/>
				</g>
				<g>
					<path class="st0" d="M53.7,45.2c0.3-0.2,0.6-0.5,1.1-0.6c0-0.3,0-0.6,0.1-0.9c-2.9-0.6-6.5-1-9.5-1.1v2.6
						c0.1,0,0.2,0.1,0.3,0.2c0.4,0.2,0.7,0.4,1.2,0.4c0.3,0,0.6-0.2,1-0.4c0.5-0.3,1.1-0.6,1.8-0.6c0.7,0,1.2,0.3,1.6,0.6
						c0.4,0.2,0.7,0.4,1.2,0.4C53.1,45.7,53.3,45.5,53.7,45.2z"/>
				</g>
				<g>
					<path class="st4" d="M45.3,50.2v2.5c0.1,0,0.2,0.1,0.3,0.2c0.4,0.2,0.7,0.4,1.2,0.4c0.3,0,0.6-0.2,1-0.4
						c0.5-0.3,1.1-0.6,1.8-0.6c0.7,0,1.2,0.3,1.6,0.6c0.4,0.2,0.7,0.4,1.2,0.4c0.4,0,0.7-0.1,0.9-0.3c0.5-0.8,0.9-1.8,0.9-3
						c0,0,0-0.1,0-0.1c0,0,0,0-0.1,0.1c-0.4,0.3-0.9,0.7-1.8,0.7c-0.8,0-1.4-0.3-1.8-0.6c-0.4-0.2-0.6-0.4-1.1-0.4
						c-0.5,0-0.9,0.2-1.3,0.5c-0.5,0.3-1,0.6-1.6,0.6C46.2,50.6,45.7,50.4,45.3,50.2z"/>
				</g>
				<g>
					<g>
						<path class="st0" d="M45,34.9c-3.1,0-7.2,0.5-10.2,1.1c0.1,2,0.2,4.5,0.3,7C38,42.4,41.8,42,45,42c3.2,0,7,0.4,9.9,1.1
							c0.1-2.5,0.3-5,0.3-7C52.2,35.4,48.1,34.9,45,34.9z M52.4,36.8l0.2-0.5l0.1,0.5l0.5,0.1l-0.5,0.2l0.1,0.5l-0.4-0.4l-0.5,0.3
							l0.3-0.5l-0.4-0.4L52.4,36.8z M49.9,36.5l0.2-0.5l0.1,0.5l0.5,0l-0.5,0.2l0.1,0.5L50,37l-0.5,0.3l0.3-0.5l-0.4-0.3L49.9,36.5z
							 M47.4,36.3l0.2-0.5l0.1,0.5l0.5,0l-0.5,0.3l0.2,0.5l-0.4-0.4l-0.4,0.3l0.2-0.5l-0.4-0.3L47.4,36.3z M44.9,36.2l0.1-0.5
							l0.1,0.5l0.5,0l-0.5,0.3l0.2,0.5L45,36.7L44.6,37l0.2-0.5l-0.5-0.3L44.9,36.2z M42.3,36.3l0.1-0.5l0.2,0.5l0.5-0.1l-0.4,0.3
							l0.2,0.5l-0.4-0.3l-0.4,0.4l0.2-0.5l-0.5-0.3L42.3,36.3z M39.8,36.5l0.1-0.5l0.2,0.5l0.5-0.1l-0.4,0.3l0.3,0.5L40,37l-0.4,0.4
							l0.1-0.5l-0.5-0.2L39.8,36.5z M37.3,36.9l0.1-0.5l0.2,0.5l0.5-0.1l-0.4,0.4l0.3,0.5l-0.5-0.3l-0.4,0.4l0.1-0.5l-0.5-0.2
							L37.3,36.9z M36.3,39.7l0.1-0.5L35.9,39l0.5-0.1l0.1-0.5l0.2,0.5l0.5-0.1l-0.4,0.4l0.3,0.5l-0.5-0.3L36.3,39.7z M38.3,41.6
							l-0.5-0.3l-0.4,0.4l0.1-0.5L37.1,41l0.5-0.1l0.1-0.5l0.2,0.5l0.5-0.1l-0.4,0.4L38.3,41.6z M39.1,39l-0.4,0.4l0.1-0.5l-0.5-0.2
							l0.5,0l0.1-0.5l0.2,0.5l0.5-0.1l-0.4,0.4l0.3,0.5L39.1,39z M40.7,41.3L40.3,41l-0.4,0.4l0.1-0.5l-0.5-0.3l0.5,0l0.1-0.5
							l0.2,0.5l0.5-0.1l-0.4,0.3L40.7,41.3z M41.5,38.7l-0.4,0.4l0.2-0.5l-0.5-0.3l0.5,0l0.1-0.5l0.2,0.5l0.5-0.1l-0.4,0.3l0.2,0.5
							L41.5,38.7z M43.1,41.2l-0.4-0.3l-0.4,0.4l0.2-0.5L42,40.4l0.5,0l0.1-0.5l0.2,0.5l0.5-0.1l-0.4,0.3L43.1,41.2z M43.9,38.6
							l-0.4,0.4l0.2-0.5l-0.5-0.3l0.5,0l0.1-0.5l0.2,0.5l0.5,0l-0.4,0.3l0.2,0.5L43.9,38.6z M45.5,41.1l-0.4-0.3l-0.4,0.3l0.2-0.5
							l-0.5-0.3l0.5,0l0.1-0.5l0.1,0.5l0.5,0l-0.5,0.3L45.5,41.1z M46.3,38.6l-0.4,0.3l0.2-0.5l-0.4-0.3l0.5,0l0.2-0.5l0.1,0.5
							l0.5,0l-0.5,0.3l0.2,0.5L46.3,38.6z M47.9,41.2l-0.4-0.4l-0.4,0.3l0.2-0.5l-0.4-0.3l0.5,0.1l0.2-0.5l0.1,0.5l0.5,0l-0.5,0.3
							L47.9,41.2z M48.7,38.7L48.2,39l0.2-0.5L48,38.2l0.5,0.1l0.2-0.5l0.1,0.5l0.5,0l-0.5,0.3l0.2,0.5L48.7,38.7z M50.3,41.4
							L49.9,41l-0.5,0.3l0.3-0.5l-0.4-0.3l0.5,0.1l0.2-0.5l0.1,0.5l0.5,0l-0.5,0.2L50.3,41.4z M51.1,39l-0.5,0.3l0.3-0.5l-0.4-0.4
							l0.5,0.1l0.2-0.5l0.1,0.5l0.5,0l-0.5,0.2l0.1,0.5L51.1,39z M52.7,41.8l-0.4-0.4l-0.5,0.3l0.3-0.5l-0.4-0.4l0.5,0.1l0.2-0.5
							l0.1,0.5l0.5,0.1l-0.5,0.2L52.7,41.8z M53.8,39.8l-0.4-0.4L53,39.6l0.3-0.5l-0.4-0.4l0.5,0.1l0.2-0.5l0,0.5l0.5,0.1l-0.5,0.2
							L53.8,39.8z"/>
					</g>
				</g>
			</g>
			<g>
				<g>
					<g>
						<path class="st0" d="M78.4,28.8c1.2-0.5,2.7-0.3,3,0.5c0.4,0.8-0.4,2-1.7,2.6c-1.2,0.5-2.7,0.3-3-0.5
							C76.3,30.6,77.1,29.4,78.4,28.8z M80.2,33.1c1.6-0.7,2.3-2.4,1.6-3.9c-0.7-1.5-2.4-2.2-4-1.5c-1.6,0.7-2.3,2.4-1.6,3.9
							C76.9,33.1,78.7,33.8,80.2,33.1z"/>
					</g>
				</g>
				<g>
					<g>
						<path class="st0" d="M78,37.2l-0.6-2.4l0.4-0.1l0.2,0.7l5-1.3l-0.2-0.7l0.4-0.1l0.9,3.6l0.2-0.1l0.1,0.5l-1.4,0.4l-0.1-0.5
							l0.6-0.2l-0.5-1.8l-2.1,0.5l0.4,1.4L82,37l0.1,0.5l-1.7,0.4l-0.1-0.5l0.6-0.2l-0.4-1.4l-2.3,0.6l0.1,0.6L78,37.2z"/>
					</g>
				</g>
				<g>
					<g>
						<path class="st0" d="M8,30.8l-0.2,0.7l3.2,1c1,0.3,1.5,0.8,1.6,1.6c0.1,0.4,0,0.9-0.1,1.3c-0.4,1.4-1.4,2.1-2.6,1.7l-3.5-1
							l-0.2,0.7l-0.4-0.1l0.7-2.4L7,34.4l-0.2,0.6l3.2,1c0.9,0.3,1.3,0.2,1.7-0.1c0.2-0.2,0.3-0.4,0.4-0.7c0.3-1-0.1-1.8-1.2-2.1
							l-3.2-1l-0.2,0.7l-0.4-0.1l0.6-2L8,30.8z"/>
					</g>
				</g>
				<g>
					<g>
						<path class="st0" d="M13.7,32.2c-0.1,0.3-0.5,0.4-0.8,0.3c-0.3-0.1-0.4-0.5-0.3-0.8c0.1-0.3,0.5-0.5,0.8-0.3
							C13.7,31.6,13.8,31.9,13.7,32.2z"/>
					</g>
				</g>
				<g>
					<g>
						<path class="st0" d="M14.8,29.7l-0.2,0.4l-1.4-0.8l0.2-0.4l0.6,0.3c0.5-0.2,0.7-0.4,0.9-0.8c0.3-0.5,0.2-1-0.2-1.2
							c-0.4-0.2-0.7-0.1-1.6,0.4c-0.9,0.5-1,0.5-1.4,0.6c-0.3,0.1-0.7,0-1-0.2c-0.9-0.5-1.1-1.4-0.5-2.4c0.2-0.3,0.4-0.5,0.6-0.7
							l-0.2-0.1l0.2-0.4l1.3,0.8l-0.2,0.4l-0.5-0.3c-0.4,0.2-0.6,0.4-0.8,0.7c-0.2,0.4-0.1,0.9,0.3,1.1c0.3,0.2,0.6,0.1,1.5-0.4
							c0.4-0.2,0.7-0.4,0.8-0.4c0.2-0.1,0.5-0.2,0.8-0.2c0.3,0,0.6,0.1,0.9,0.2c0.9,0.5,1.2,1.5,0.6,2.4c-0.3,0.5-0.5,0.7-0.9,1
							L14.8,29.7z"/>
					</g>
				</g>
				<g>
					<g>
						<path class="st0" d="M17.2,25.6c0,0.3-0.3,0.6-0.6,0.6c-0.3,0-0.6-0.3-0.6-0.6c0-0.3,0.3-0.6,0.6-0.6
							C16.9,25,17.2,25.3,17.2,25.6z"/>
					</g>
				</g>
				<g>
					<g>
						<path class="st0" d="M31,14.1l-3.8,2l-0.2-0.3l0.6-0.3l-2.4-4.6l-0.6,0.3l-0.2-0.3l3.3-1.7l-0.1-0.2l0.4-0.2l0.7,1.3l-0.4,0.2
							l-0.3-0.6l-1.7,0.9l1,1.9l1.3-0.7l-0.3-0.5l0.4-0.2l0.8,1.6l-0.4,0.2l-0.3-0.6l-1.3,0.7l1,2l1.7-0.9l-0.3-0.6l0.4-0.2L31,14.1
							z"/>
					</g>
				</g>
				<g>
					<g>
						<path class="st0" d="M34.7,12.8l-2.5,0.8l-0.1-0.4l0.6-0.2l-1.6-4.9l-0.6,0.2L30.4,8l2.6-0.9c1.1-0.3,2,0.1,2.3,1
							c0.3,0.9-0.3,2-1.3,2.3c-0.1,0-0.2,0.1-0.5,0.1l-0.1-0.4c0.1,0,0.2,0,0.2-0.1c0.6-0.2,0.8-0.7,0.5-1.5
							c-0.3-0.8-0.7-1.1-1.3-0.9l-0.5,0.2l1.6,4.8l0.7-0.2L34.7,12.8z"/>
					</g>
				</g>
				<g>
					<g>
						<path class="st0" d="M37.6,9.5l0.5-2.4l1.2,2.1L37.6,9.5z M42,10.8l-0.4,0.1l-3.2-5.3l-0.5,0.1l-1.3,6l-0.5,0.1l0.1,0.4
							l1.8-0.3l-0.1-0.4l-0.7,0.1l0.3-1.5l2.1-0.4l0.8,1.3l-0.6,0.1l0.1,0.4l2.2-0.4L42,10.8z"/>
					</g>
				</g>
				<g>
					<g>
						<path class="st0" d="M44.5,5.7l0.6,0c0.6,0,1,0.4,1,1.1c0,0.7-0.4,1.2-1,1.2l-0.5,0L44.5,5.7z M48.2,10.8l-0.4,0
							c-0.2,0-0.3-0.1-0.5-0.4l-1.3-2c0.8-0.3,1.3-0.8,1.3-1.6c0-0.5-0.1-0.9-0.4-1.2c-0.3-0.3-0.8-0.4-1.5-0.4l-2.6,0v0.4l0.7,0
							l0,5.2l-0.7,0l0,0.4l2.5,0v-0.4l-0.7,0l0-2.3l0.2,0l1.3,2.1c0.3,0.5,0.4,0.5,0.9,0.5l1.1,0L48.2,10.8z"/>
					</g>
				</g>
				<g>
					<g>
						<path class="st0" d="M52.2,11.9l-2.8-0.5l0.1-0.4l0.9,0.1l0.8-4.9L49.6,6l-0.1,0.7L49,6.6l0.3-1.5l0.5,0.1l0,0.2l4.2,0.7
							l0-0.2L54.4,6l-0.3,1.5l-0.5-0.1l0.1-0.7l-1.5-0.3l-0.8,4.9l0.8,0.1L52.2,11.9z"/>
					</g>
				</g>
				<g>
					<g>
						<path class="st0" d="M60.6,14.7l-2.5-1l0.1-0.4l0.7,0.3l1.4-3.6L57,13.4l-0.5-4.8l-1.4,3.5l0.7,0.3l-0.1,0.4L53.8,12l0.1-0.4
							l0.7,0.3l1.9-4.8l-0.7-0.3l0.1-0.4l1.5,0.6l0.5,4.7l3.3-3.2l1.7,0.6l-0.1,0.4l-0.7-0.3l-1.9,4.8l0.7,0.3L60.6,14.7z"/>
					</g>
				</g>
				<g>
					<g>
						<path class="st0" d="M65,17.6l-3.6-2.3l0.2-0.3l0.6,0.4l2.8-4.4l-0.6-0.4l0.2-0.3l3.1,2l0.1-0.2l0.4,0.3l-0.8,1.2l-0.4-0.3
							l0.3-0.5l-1.6-1l-1.1,1.8l1.2,0.8l0.3-0.5l0.4,0.3l-1,1.5l-0.4-0.3l0.3-0.5l-1.2-0.8l-1.2,1.9l1.6,1l0.4-0.6l0.4,0.3L65,17.6z
							"/>
					</g>
				</g>
				<g>
					<g>
						<path class="st0" d="M25.2,13.9c-1-1.3-2.8-1.6-4.2-0.6l-2.3,1.7l0.2,0.3l0.5-0.4l3.1,4.2c0.1,0.1,0.3,0.1,0.4,0.2l1.5-1.1
							c0.7-0.5,1.1-1.1,1.2-1.9C25.9,15.4,25.7,14.5,25.2,13.9z M24.1,17.8l-0.6,0.4l-2.9-4l0.6-0.5c0.8-0.6,2.2-0.2,3,0.8
							C25,15.8,25,17.1,24.1,17.8z"/>
					</g>
				</g>
				<g>
					<path class="st0" d="M72.6,16.3l-0.3,0.3l0.5,0.5l-2.5,2.8l0.6-5l-1.3-1.2l-0.3,0.3l0.5,0.4l-0.1,0.5l-3.2,3.5l-0.5-0.5
						l-0.3,0.3l1.5,1.4l0.3-0.3l-0.5-0.5l2.6-2.9l-0.6,4.6c0.5-0.1,1.1-0.3,1.8-0.5c0.1,0,0.1,0,0.2,0l2.3-2.5l0.6,0.5l0.3-0.3
						L72.6,16.3z"/>
				</g>
				<g>
					<path class="st0" d="M78.7,22.8L78.5,23l-2.6-3.4l0.2-0.2l-0.3-0.4L74.6,20l0.3,0.4l0.6-0.5l0.9,1.2l-4,3l-0.2-0.3
						c-0.1,0.1-0.2,0.1-0.3,0.2l1.5,1.9l0.3-0.2l-0.5-0.7l4-3l0.9,1.2l-0.6,0.5l0.3,0.4l1.2-0.9L78.7,22.8z"/>
				</g>
				<g>
					<g>
						<path class="st0" d="M52.4,84.4L52,84.5l-0.3-1.6l0.5-0.1l0.1,0.6c0.5,0.2,0.8,0.3,1.2,0.2c0.5-0.1,0.9-0.5,0.8-1
							c-0.1-0.4-0.4-0.6-1.3-1c-1-0.4-1.1-0.4-1.4-0.6c-0.3-0.2-0.5-0.5-0.5-0.9c-0.2-1,0.4-1.8,1.4-2c0.3-0.1,0.6-0.1,1,0l-0.1-0.3
							l0.5-0.1l0.3,1.5l-0.5,0.1l-0.1-0.6c-0.4-0.2-0.7-0.2-1-0.1c-0.5,0.1-0.7,0.5-0.6,0.9c0.1,0.3,0.3,0.5,1.3,0.9
							c0.5,0.2,0.7,0.3,0.9,0.3c0.2,0.1,0.5,0.2,0.7,0.5c0.2,0.2,0.4,0.5,0.4,0.9c0.2,1-0.4,1.9-1.4,2.1c-0.5,0.1-0.9,0.1-1.4-0.1
							L52.4,84.4z"/>
					</g>
				</g>
				<g>
					<g>
						<path class="st0" d="M61.6,81.5l-4,1.6l-0.1-0.4l0.6-0.2l-1.9-4.8L55.6,78l-0.1-0.4l3.4-1.4L58.8,76l0.5-0.2l0.5,1.3l-0.4,0.2
							l-0.2-0.6l-1.7,0.7l0.8,2l1.3-0.5l-0.2-0.6l0.4-0.2l0.6,1.6l-0.4,0.2l-0.2-0.6l-1.3,0.5l0.8,2.1l1.8-0.7l-0.2-0.6l0.5-0.2
							L61.6,81.5z"/>
					</g>
				</g>
				<g>
					<g>
						<path class="st0" d="M67.5,77.9c-0.5,0.6-0.9,1-1.4,1.3c-1.6,1-3.4,0.6-4.4-0.9c-0.9-1.5-0.4-3.3,1.1-4.3
							c0.5-0.3,0.9-0.4,1.4-0.5l-0.2-0.3l0.4-0.3l0.8,1.4l-0.4,0.3l-0.3-0.5c-0.6,0-0.9,0-1.3,0.3c-1.1,0.6-1.3,2-0.5,3.3
							c0.8,1.2,2.2,1.7,3.2,1.1c0.4-0.2,0.6-0.5,0.8-0.9l-0.4-0.6l0.4-0.3L67.5,77.9z"/>
					</g>
				</g>
				<g>
					<g>
						<path class="st0" d="M70.2,68.7l-0.6,0.5l2.3,2.5c0.7,0.7,0.9,1.5,0.5,2.2c-0.2,0.4-0.4,0.8-0.8,1.1c-1.1,1-2.3,1-3.1,0.1
							l-2.4-2.7l-0.5,0.5l-0.3-0.3l1.9-1.7l0.3,0.3L67,71.6l2.3,2.5c0.6,0.7,1,0.9,1.5,0.7c0.2-0.1,0.5-0.2,0.7-0.4
							c0.8-0.7,0.8-1.6,0.1-2.4l-2.2-2.5l-0.6,0.5l-0.3-0.3l1.5-1.4L70.2,68.7z"/>
					</g>
				</g>
				<g>
					<g>
						<path class="st0" d="M80.3,63.4l-1.2,2.2l-0.3-0.2l0.3-0.6l-4.5-2.5L74.2,63l-0.3-0.2l1.2-2.2l0.3,0.2l-0.3,0.6l4.5,2.5
							l0.3-0.6L80.3,63.4z"/>
					</g>
				</g>
				<g>
					<g>
						<path class="st0" d="M82.6,58.1l-1,2.7l-0.4-0.1l0.3-0.8L76.8,58l-0.5,1.5l0.7,0.3l-0.2,0.5l-1.4-0.5l0.2-0.5l0.2,0.1l1.5-4
							l-0.2-0.1l0.2-0.5l1.4,0.5l-0.2,0.5l-0.7-0.3L77.2,57l4.7,1.8l0.3-0.8L82.6,58.1z"/>
					</g>
				</g>
				<g>
					<g>
						<path class="st0" d="M84.2,51.5l-0.5,2.5l-0.4-0.1l0.1-0.7L81,52.7l-3,1.2l-0.1,0.6l-0.4-0.1L78,52l0.4,0.1l-0.1,0.7l2.2-0.9
							l-1.7-1.5L78.6,51l-0.4-0.1l0.4-2L79,49l-0.1,0.6l2.1,1.9l2.7,0.5l0.1-0.7L84.2,51.5z"/>
					</g>
				</g>
				<g>
					<g>
						<path class="st0" d="M78.1,66.7L77.9,67c-0.1,0.1-0.2,0.2-0.6,0.2L75,67c0.3-0.8,0.1-1.5-0.5-2c-0.4-0.3-0.8-0.4-1.2-0.3
							c-0.5,0.1-0.8,0.3-1.3,1l-1.6,2.1l0.3,0.2l0.4-0.5l4.1,3.1l-0.4,0.5l0.3,0.2l1.5-2l-0.3-0.2L76,69.6l-1.8-1.3l0.1-0.2l2.5,0.2
							c0.6,0,0.7,0,1-0.4l0.7-0.9L78.1,66.7z M71.9,66.6l0.3-0.5c0.4-0.5,0.9-0.6,1.5-0.1c0.6,0.4,0.7,1.1,0.3,1.6L73.8,68
							L71.9,66.6z"/>
					</g>
				</g>
				<g>
					<g>
						<path class="st0" d="M7.1,57l-0.6-2.4l0.4-0.1L7,55.1l2.3-0.6l-0.7-2.8l-2.3,0.6L6.5,53L6.1,53l-0.6-2.4l0.4-0.1L6,51.2l5-1.2
							l-0.2-0.7l0.4-0.1l0.6,2.4l-0.4,0.1l-0.2-0.7l-2.2,0.5l0.7,2.8l2.2-0.5l-0.2-0.7l0.4-0.1l0.6,2.4l-0.4,0.1L12.3,55l-5,1.2
							l0.2,0.7L7.1,57z"/>
					</g>
				</g>
				<g>
					<g>
						<path class="st0" d="M10.5,58.4c1.2-0.6,2.7-0.3,3,0.5c0.4,0.8-0.4,2-1.6,2.6c-1.2,0.6-2.7,0.3-3-0.5
							C8.5,60.2,9.3,58.9,10.5,58.4z M12.4,62.6c1.6-0.7,2.2-2.5,1.6-4c-0.7-1.5-2.5-2.1-4-1.4c-1.6,0.7-2.3,2.5-1.6,4
							C9.1,62.7,10.9,63.3,12.4,62.6z"/>
					</g>
				</g>
				<g>
					<g>
						<path class="st0" d="M14.7,71.1L13.1,69l0.3-0.2l0.4,0.6l3.1-2.3l-4.7,1l2.2-4.2L11.5,66l0.4,0.6l-0.3,0.2l-1.2-1.7l0.3-0.2
							l0.4,0.6l4.2-3l-0.4-0.6l0.3-0.2l0.9,1.3L14,67.2l4.5-0.9l1,1.4l-0.3,0.2l-0.4-0.6l-4.2,3l0.4,0.6L14.7,71.1z"/>
					</g>
				</g>
				<g>
					<g>
						<path class="st0" d="M19.4,75.7l-3.1-2.9l0.3-0.3L17,73l3.5-3.8L20,68.8l0.3-0.3L23,71l0.2-0.2l0.4,0.3l-1,1l-0.3-0.3l0.4-0.5
							l-1.4-1.3l-1.4,1.6l1.1,1l0.4-0.4l0.4,0.3l-1.2,1.3l-0.4-0.3l0.4-0.5l-1.1-1l-1.5,1.6l1.4,1.3l0.4-0.5l0.4,0.3L19.4,75.7z"/>
					</g>
				</g>
				<g>
					<g>
						<path class="st0" d="M24.7,79.4L21.2,77l0.2-0.3l0.6,0.4l2.9-4.3l-0.6-0.4l0.2-0.3l2.1,1.4l-0.2,0.3l-0.6-0.4L23,77.6l1.6,1.1
							l0.4-0.6l0.4,0.3L24.7,79.4z"/>
					</g>
				</g>
				<g>
					<g>
						<path class="st0" d="M28.3,78.6L30,77l-0.2,2.4L28.3,78.6z M31.2,82.1L30.8,82l0.3-6.1l-0.5-0.2l-4.5,4.3l-0.5-0.2L25.5,80
							l1.7,0.8l0.2-0.3l-0.7-0.3l1.1-1.1l2,0.9l-0.1,1.6l-0.6-0.3L29,81.6l2,0.9L31.2,82.1z"/>
					</g>
				</g>
				<g>
					<g>
						<path class="st0" d="M37.4,84.2l-0.6-0.1l-2-5l-0.9,3.8l0.7,0.2l-0.1,0.4l-2-0.5l0.1-0.4l0.7,0.2l1.1-4.6l-0.2-0.5l-0.6-0.1
							l0.1-0.4l1.7,0.4l1.9,4.7l0.9-3.7l-0.7-0.2l0.1-0.4l2,0.5l-0.1,0.4l-0.7-0.2L37.4,84.2z"/>
					</g>
				</g>
				<g>
					<g>
						<path class="st0" d="M43.2,78.8l-2.8-0.1l0,0.4l0.7,0l-0.2,5.2h0l-0.7,0l0,0.4l2.8,0.1l0,0h0c0.9,0,1.5-0.2,2.1-0.7
							c0.6-0.6,1-1.3,1-2.2C46.2,80.2,44.9,78.8,43.2,78.8z M44.8,81.8c-0.1,1.4-0.9,2.4-2.1,2.4l-0.7,0l0.2-4.9l0.8,0
							C44,79.3,44.9,80.5,44.8,81.8z"/>
					</g>
				</g>
			</g>
			<g>
				<path class="st0" d="M73.6,48.7l-2.2,0.7l0.5,0.2l-0.8,0.5c0.1-0.4,0.2-0.9,0.2-1.4l1.2-1l0,0.5l1.4-1.9l-2.1,1l0.5,0.1l-1,0.8
					c0.1-0.6,0.1-1.1,0.2-1.7l1.2-1.3l0.1,0.5l1.1-2L72,45l0.5,0.1l-1,1c0-0.4,0-0.7,0-1.1c0-2.7-0.4-5.2-1.1-7.6
					c-1.2,0.1-2.4-0.3-3-0.4c1.5,0.9,2.1,1.9,2.3,3c-1.2,0.3-2.9-0.1-3.8-0.8c0.9,0.8,1.4,2,1.5,3.2c-1.3,0.1-2.4-0.5-3.3-1.4
					c0.6,0.6,1.3,2.2,1.1,3.3c-1.1-0.1-2.3-0.8-3-1.6c0.6,1.2,0.8,2.3,0.8,3.4c-1.1-0.2-1.9-0.5-2.8-1.4c0.5,1.1,0.6,2.3,0.5,3.2
					c-1.2-0.4-2-0.9-2.7-2.1c0.4,1,0.6,2.3,0.4,3.1c-1-0.3-1.7-0.9-2.2-2c0.5,1.1,0.5,2.4,0.3,3.1c-0.4-0.1-1-0.4-1.3-0.7
					c0,0.2,0,0.4,0,0.6c-0.1,0.8-0.2,1.5-0.4,2.1c0.1,0.1,0.3,0.3,0.3,0.3c0.5,0.6,1.3,1.1,1.9,1.3c-0.3,0-0.6,0.3-0.9,0.3
					c0.4,0.4,1.2,0.5,1.7,1c-0.4,0-0.5,0.3-0.9,0.3c0.9,0.7,1.7,0.7,2.1,0.8c0.2,0,0.8,0.1,1.1,0c0.5-0.1,0.9,0.1,1.2,0.3l4.8-9.7
					l-0.5,0.1l1.5-1.7l-0.5,2.3l-0.2-0.5l-4.8,9.8c0.1,0.1,0.1,0.2,0.1,0.4c0,0,0,0,0,0l0.2-0.1l0,0l7.8-6.2L69,50.4l2.1-0.9
					l-1.4,1.8l0-0.5l-7.7,6.1c0.2,0,0.4,0.1,0.5,0.2c0.1,0.2,0.1,0.3,0,0.7c-0.1,0.3-0.2,0.5-0.4,0.5c-0.1,0-0.2,0-0.3,0
					c0.1,0,0.1,0.1,0.2,0.2c0,0.1,0.1,0.3-0.2,0.6c-0.3,0.3-0.5,0.4-0.7,0.3c-0.1-0.1-0.1-0.1-0.2-0.2c0,0.1,0.1,0.2,0.1,0.2
					c0,0.3-0.2,0.4-0.4,0.5c-0.5,0.2-0.8,0.1-0.9-0.1c-0.3-0.4-0.1-0.9,0.1-1c0,0.2,0,0.3,0,0.5c0,0.2,0.1,0.4,0.4,0.4
					c0.2,0,0.4-0.1,0.6-0.2c0.1-0.1,0.1-0.3,0.1-0.5c0-0.1-0.1-0.2-0.2-0.3c0.2,0,0.3,0.1,0.4,0.3c0.1,0.1,0.3,0.1,0.5,0
					c0.1-0.2,0.2-0.3,0.3-0.4c0.1-0.3-0.2-0.5-0.4-0.6c0.4,0,0.4,0.2,0.7,0.1c0.3,0,0.4-0.5,0.4-0.7c0-0.1-0.1-0.2-0.3-0.3
					c-0.1,0-0.3,0-0.4,0c0,0,0,0.1,0,0.1c0,0.1-0.1,0.3-0.3,0.4c-0.1,0-0.2,0-0.1-0.1c0.1-0.1,0.2-0.7-0.1-0.9
					c-0.2-0.2-0.5-0.3-0.9-0.3c-0.4,0-1,0.1-1.3,0c-0.3,0-0.4,0.3-0.5,0.5c-0.1,0.4-0.2,0.8-0.7,0.6c-0.6-0.4-1.5-0.3-2.5-0.7
					c0.1,0.3,0.1,0.6,0.2,0.9c-0.9-0.2-1.1-0.7-2-1c0.1,0.3,0.1,0.6,0.3,0.9c-0.7-0.1-1.4-0.8-2.4-1.1c0,0-0.1,0-0.1,0
					c-0.4,0.1-0.7,0.2-1,0.3c0.7,0.8,1.3,1.8,1.6,3c0,0-0.5,0-1.3-0.2c0.2,0.7,0.4,1.4,0.4,2.1c0,0-0.6-0.1-1.4-0.6
					c0.1,0.7,0,1.5-0.1,2.2c0,0-0.7-0.3-1.4-1.1c-0.1,0.7-0.3,1.5-0.6,2.2c0,0-0.6-0.4-1.2-1.4c-0.3,0.7-0.6,1.5-1.1,2.2
					c0,0-0.7-0.7-1.1-2.1c-0.6,0.9-1.2,1.3-1.2,1.3c-0.3-0.7-0.5-1.5-0.6-2.2c-0.8,0.8-1.4,1.1-1.4,1.1c-0.2-0.8-0.2-1.5-0.1-2.2
					c-0.8,0.5-1.4,0.6-1.4,0.6c0-0.8,0.1-1.5,0.4-2.1c-0.8,0.3-1.3,0.2-1.3,0.2c0.3-1.2,1.1-2.5,1.6-3.1c0,0,0,0,0,0
					c-0.3-0.1-0.6-0.2-0.9-0.3c0,0-0.1,0-0.1,0c-1,0.3-1.7,0.9-2.4,1.1c0.2-0.3,0.2-0.5,0.3-0.9c-0.9,0.3-1.1,0.8-2,1
					c0.2-0.4,0.1-0.6,0.2-0.9c-0.8,0.4-2,0.7-2.5,0.8c-0.6,0.1-0.6-0.7-0.8-0.9c-0.1-0.1-0.5-0.1-0.7-0.1c-0.3,0-0.8,0-1.2,0
					c-0.4,0-0.7,0.1-0.9,0.3c-0.3,0.2-0.2,0.8,0,0.9c0.1,0.1,0.1,0.1-0.1,0.1c-0.2-0.1-0.3-0.3-0.3-0.4c0,0,0,0,0-0.1
					c-0.1,0-0.3,0-0.5,0c-0.2,0-0.3,0.1-0.3,0.3c0,0.2,0.1,0.6,0.4,0.7c0.3,0.1,0.4-0.1,0.7-0.1c-0.2,0.1-0.6,0.3-0.4,0.6
					c0,0.1,0.1,0.2,0.3,0.4c0.1,0.1,0.3,0.1,0.5,0c0.1-0.1,0.2-0.2,0.4-0.2c-0.1,0.1-0.1,0.2-0.2,0.3c-0.1,0.2-0.1,0.4,0.1,0.5
					c0.2,0.1,0.4,0.2,0.6,0.2c0.3,0,0.4-0.2,0.4-0.4c0-0.2,0-0.4,0-0.5c0.2,0.1,0.3,0.6,0,1c-0.1,0.2-0.4,0.3-0.9,0.1
					c-0.3-0.1-0.5-0.2-0.4-0.5c0-0.1,0-0.2,0.1-0.2c-0.1,0.1-0.1,0.1-0.2,0.2c-0.2,0.1-0.4,0-0.7-0.3c-0.3-0.3-0.2-0.5-0.2-0.6
					c0-0.1,0.1-0.1,0.2-0.2c-0.1,0.1-0.3,0-0.3,0c-0.2,0-0.3-0.2-0.4-0.5c-0.1-0.4-0.1-0.5,0-0.7c0.1-0.2,0.7-0.3,1-0.2
					c0-0.2,0.1-0.4,0.3-0.5c0.2-0.1,0.8-0.4,1.3-0.3c0.4,0.1,1,0,1.1,0c0.2,0,1.5-0.3,2.4-0.9c-0.5,0.1-0.5-0.2-0.9-0.3
					c0.5-0.5,1.3-0.6,1.7-1c-0.3,0-0.7-0.3-0.9-0.4c0.8-0.4,1.3-0.7,1.8-1.3c0,0,0.2-0.2,0.3-0.3c-0.2-0.7-0.4-1.4-0.5-2.1
					c0-0.2,0-0.4,0-0.6c-0.2,0.2-0.6,0.4-1.2,0.6c-0.3-0.7-0.2-2.1,0.2-3.1c-0.5,1.1-1.1,1.7-2.2,2.1c-0.3-0.8-0.1-2.1,0.3-3.1
					c-0.7,1.1-1.4,1.7-2.6,2.2c-0.1-0.9,0-2.2,0.4-3.3c-0.9,0.9-1.7,1.2-2.8,1.4c-0.1-1.1,0.2-2.1,0.8-3.4c-0.7,0.8-2.1,1.4-3.1,1.5
					c0.1-1,0.8-2.3,1.2-3.1c-1,0.7-2.1,1.2-3.2,1.3c0.1-1.1,0.6-2.3,1.5-3.2c-1,0.7-2.5,1.1-3.7,1c0.3-1.2,1-2.4,2-3
					c-0.6,0.1-1.6,0.4-2.8,0.2c-0.7,2.4-1.1,4.9-1.1,7.5c-0.6-0.5-1-0.6-1.4-1c0.1,0.6,0.2,0.9,0.2,1.6c0.1,1.3,0.6,2,1.4,2.4
					c0,0.4,0.1,0.7,0.1,1.1c-0.6-0.4-1.4-0.6-2.4-0.6c0.6,2,1.5,2.2,2.7,2.4c0,0.2,0.1,0.4,0.1,0.6c-0.6-0.2-1.4-0.2-2.3,0.1
					c0.6,0.9,1.4,1.5,2.8,1.7c0,0,0,0,0,0c-0.8-0.1-1.7,0.1-2.4,0.4c1,0.9,2,1.2,3,1.1c0,0.1,0.1,0.2,0.1,0.4
					c-0.8,0.2-1.4,0.6-1.8,1c0.8,0.3,1.6,0.4,2.3,0.3c0,0,0,0,0,0.1c-0.4,0.3-0.8,0.9-1,1.7c0.6-0.1,1.1-0.2,1.7-0.3
					c0.1,0.2,0.2,0.4,0.4,0.6c-0.3,0.6-0.4,1.3-0.2,2.1c0.5-0.1,0.9-0.3,1.2-0.5c0.1,0.2,0.2,0.3,0.3,0.5c-0.1,0.9,0.1,1.9,0.6,2.5
					c0.2-0.3,0.4-0.5,0.6-0.7c1.2-1.8,0.5-3.2,0.5-4.3c0,0,0,0,0-0.1c0.1,1.4,1.3,2.8-0.1,4.5c0,0-0.1,0.1-0.1,0.1
					c4.9,5.7,12.1,9.3,20.2,9.3c11.5,0,21.2-7.2,25-17.4l1.2-0.5l-0.1,0.5l1.7-1.5l-2.3,0.5l0.5,0.2l-0.9,0.4
					c0.2-0.5,0.3-0.9,0.5-1.4l1.3-0.7l0,0.5l1.6-1.7l-2.2,0.7l0.5,0.2L70.7,52c0.1-0.5,0.3-1,0.4-1.6l1-0.6l0,0.5L73.6,48.7z"/>
			</g>
			<path class="st1" d="M61.4,57.1c0.1,0,0.3,0,0.4,0c0.2,0,0.3,0.2,0.3,0.3c0,0.2-0.1,0.6-0.4,0.7c-0.3,0-0.4-0.1-0.7-0.1
				c0.2,0.1,0.6,0.3,0.4,0.6c-0.1,0.1-0.1,0.2-0.3,0.4c-0.1,0.1-0.3,0.1-0.5,0c-0.1-0.1-0.2-0.2-0.4-0.3c0.1,0.1,0.1,0.2,0.2,0.3
				c0.1,0.2,0.1,0.4-0.1,0.5c-0.2,0.1-0.5,0.2-0.6,0.2c-0.3,0-0.4-0.2-0.4-0.4c0-0.2,0-0.4,0-0.5c-0.2,0.1-0.3,0.6-0.1,1
				c0.1,0.2,0.4,0.3,0.9,0.1c0.3-0.1,0.5-0.2,0.4-0.5c0-0.1,0-0.2-0.1-0.2c0.1,0.1,0.1,0.1,0.2,0.2c0.2,0.1,0.4,0,0.7-0.3
				c0.3-0.3,0.2-0.5,0.2-0.6c0-0.1-0.1-0.1-0.2-0.2c0.1,0.1,0.3,0,0.3,0c0.2,0,0.3-0.2,0.4-0.5c0.1-0.4,0.2-0.5,0-0.7
				c-0.1-0.1-0.2-0.2-0.5-0.2l7.7-6.1l0,0.5l1.4-1.8L69,50.4l0.5,0.1l-7.8,6.2l0,0l-0.2,0.1c0,0,0,0,0,0"/>
			<polyline class="st1" points="61.3,56.5 66.2,46.7 66.4,47.2 66.9,44.9 65.4,46.6 65.9,46.5 61.1,56.3 			"/>
			<path class="st1" d="M60.1,57.6c0.1,0.3,0.1,0.7,0.1,0.9c0.5-0.1,0.6-0.6,0.6-0.8C60.7,57.4,60.3,57.4,60.1,57.6z"/>
			<path class="st1" d="M60,57.6c-0.3,0-0.4-0.2-0.5-0.3c-0.1-0.1-0.2-0.2-0.2,0c0,0.2,0,0.3,0.1,0.4C59.6,57.7,59.8,57.7,60,57.6z"
				/>
			<path class="st1" d="M60,58.5c-0.1-0.1-0.2-0.3-0.2-0.5c-0.1,0.1-0.2,0.5-0.2,0.8c0,0.1,0,0.1,0.2,0.1c0.2,0,0.4-0.1,0.5-0.2
				C60.2,58.7,60.1,58.6,60,58.5z"/>
			<path class="st1" d="M65.9,48.3l0.5,0l-3,4.6c-0.4,0.7-0.7,1.4-1,2c0,0,0,0,0-0.1l4.2-6.4l0.2,0.5l0.7-2.2L65.9,48.3z"/>
			<path class="st1" d="M64.8,52.3l5.5-7l0.1,0.5l0.9-2.1l-1.8,1.4l0.5,0l-5,6.3c-0.4,0.6-0.8,1.2-1.2,1.8l0,0
				C64.2,53,64.5,52.6,64.8,52.3z"/>
			<path class="st1" d="M64.1,54.4c0.5-0.4,0.9-0.7,1.4-1.1l4.6-4.2l0.1,0.5l1.2-1.9l-2,1.1l0.5,0.1l-4.6,4.3
				C64.9,53.5,64.5,53.9,64.1,54.4z"/>
			<path class="st1" d="M69.2,53.4l-6.4,3.2c-0.1,0.1-0.2,0.2-0.3,0.2c0,0,0.1,0.1,0.1,0.1c0,0,0,0,0,0.1l6.7-3.3l-0.1,0.5l1.7-1.5
				l-2.3,0.5L69.2,53.4z"/>
			<path class="st1" d="M59.5,60.2c-0.1,0-0.2-0.1-0.3-0.1l-1.2,2.4l0,0l-0.4,0.1l-1.4,2.6L57,65l0.2,0.6l1.3-2.6l-0.2-0.4
				L59.5,60.2z"/>
			<path class="st1" d="M64,55.7c0.4-0.2,1-0.5,1.5-0.7l4.3-2.8l0,0.5l1.5-1.7l-2.2,0.7l0.5,0.2l-4.7,3C64.6,55.2,64.3,55.4,64,55.7
				z"/>
			<path class="st1" d="M59,59.6c0-0.1,0-0.3,0-0.4l-1.5,1.7l-0.5,0l0,0l0,0L54.8,63l0.1,0l0,0l0,0l0.5,0l0.1,0.5l1.8-2.3l0.3-0.1
				L59,59.6z"/>
			<path class="st1" d="M61.8,56.2c0.2-0.1,0.5-0.4,0.8-0.6l7.5-8.2l0.1,0.5l1.1-2l-1.9,1.3l0.5,0.1L62,55.8
				C61.9,56,61.9,56.1,61.8,56.2z"/>
			<path class="st1" d="M55.1,61.8l2.8-2c0.3-0.4,0.7-0.7,0.8-0.9l-3.5,2.3l0,0l-0.4-0.1l-0.3,0.2l-2.2,1.4l0.6,0.1l0.1,0.5l1.8-1.6
				L55.1,61.8z"/>
			<path class="st1" d="M52.7,62.1l1.1-0.7l1-0.7l0.4,0.1c0,0,2.6-1.6,3.2-2c0,0,0,0,0,0h0c0,0,0,0,0,0l-3.3,1.7l-0.4-0.1l-2.7,1.3
				l0.6,0.2L52.7,62.1z"/>
			<path class="st1" d="M28.3,57.1c-0.3-0.1-0.9,0-1,0.2c-0.1,0.2-0.1,0.3,0,0.7c0.1,0.4,0.2,0.5,0.4,0.5c0.1,0,0.2,0,0.3,0
				c-0.1,0-0.1,0.1-0.2,0.2c0,0.1-0.1,0.3,0.2,0.6c0.2,0.3,0.5,0.4,0.7,0.3c0.1-0.1,0.2-0.1,0.2-0.2c0,0.1-0.1,0.2-0.1,0.2
				c-0.1,0.3,0.2,0.4,0.4,0.5c0.5,0.2,0.8,0.1,0.9-0.1c0.3-0.4,0.1-0.9,0-1c0,0.2,0,0.3,0,0.5c0,0.2-0.1,0.4-0.4,0.4
				c-0.2,0-0.4-0.1-0.6-0.2c-0.1-0.1-0.1-0.3-0.1-0.5c0-0.1,0.1-0.2,0.2-0.3c-0.2,0-0.3,0.1-0.4,0.2c-0.1,0.1-0.3,0.1-0.5,0
				c-0.1-0.2-0.2-0.3-0.3-0.4c-0.1-0.3,0.2-0.5,0.4-0.6c-0.4,0-0.4,0.1-0.7,0.1c-0.3-0.1-0.4-0.5-0.4-0.7c0-0.1,0.1-0.2,0.3-0.3
				c0.2,0,0.4,0,0.5,0"/>
			<path class="st1" d="M21.7,54.1C21.7,54.1,21.7,54.1,21.7,54.1c-0.8-0.5-1.4-0.6-2.5-0.5C20.2,53.7,20.9,53.8,21.7,54.1z"/>
			<path class="st1" d="M22.2,59.7c0.1-0.8,0.6-1.7,1.4-2.3c0.5-0.4,0.8-0.6,0.4-0.1C23.3,58,22.5,59.1,22.2,59.7z"/>
			<path class="st1" d="M23.8,61.8c-0.3-0.7,0-1.9,0.3-2.7c0.2-0.5,0.8-1.3,0.9-1.4C24.4,58.7,23.8,61.1,23.8,61.8z"/>
			<path class="st1" d="M21.4,51.7c-0.1-0.3-0.3-0.5-0.6-0.4c-0.3,0.1-0.5,0.3-0.4,0.6c0.1,0.3,0.3,0.5,0.6,0.4
				C21.3,52.2,21.4,52,21.4,51.7z"/>
			<path class="st1" d="M25.8,52.4c0-0.8-0.1-1.5,0-2.4c-1.5,1.1-2,3-1.4,4.4c-0.1,0-0.1,0-0.2,0c-0.3,0.1-0.5,0.3-0.4,0.6
				c0.1,0.3,0.3,0.5,0.6,0.4c0.3-0.1,0.5-0.3,0.4-0.6c0-0.1-0.1-0.3-0.2-0.3c-0.3-1.2,0-2.7,0.6-3.3c-0.2,0.7-0.6,2.3-0.3,3.8
				c0.2-0.3,0.4-0.6,0.6-0.8c0,0.2,0.1,0.5,0.2,0.7c0-1.1,0.4-2.3,1.6-3.1c-0.9,1.1-1.4,2.4-1.5,3.4c0.6-0.8,2.1-1,2.2-4.2
				C27.2,51.1,26.3,51.6,25.8,52.4z"/>
			<path class="st1" d="M26.8,55.6c-0.1-0.3-0.3-0.5-0.6-0.4c-0.3,0.1-0.5,0.4-0.4,0.6c0.1,0.3,0.3,0.5,0.6,0.4
				C26.7,56.2,26.9,55.9,26.8,55.6z"/>
			<path class="st1" d="M26.6,57.3c-0.1-0.3-0.3-0.5-0.6-0.4c-0.3,0.1-0.5,0.3-0.4,0.6c0.1,0.3,0.3,0.5,0.6,0.4
				C26.5,57.9,26.7,57.6,26.6,57.3z"/>
			<path class="st1" d="M23.4,49.2c-1.1,0.9-1.4,2.1-1.3,3.1c0,0-0.1,0-0.1,0c-0.2,0-0.4,0.3-0.3,0.5c0,0.2,0.3,0.4,0.5,0.3
				c0.1,0,0.1,0,0.1-0.1c0.1,0.3,0.2,0.6,0.4,0.8c-0.1-0.3-0.2-0.7-0.2-1.1c0,0,0-0.1,0-0.1c0,0,0,0,0,0c-0.1-0.9,0.1-1.8,0.6-2.4
				c-0.2,1-0.4,2.8-0.2,3.9C23.2,52.9,25,52.4,23.4,49.2z"/>
			<path class="st1" d="M27.9,56.4c0-0.2-0.3-0.4-0.5-0.3c-0.2,0-0.4,0.3-0.3,0.5c0,0.2,0.3,0.4,0.5,0.3
				C27.8,56.8,27.9,56.6,27.9,56.4z"/>
			<path class="st1" d="M25.5,56.3c0-0.2-0.2-0.3-0.5-0.3c-0.2,0-0.4,0.2-0.3,0.5c0,0.2,0.3,0.4,0.5,0.3
				C25.4,56.7,25.6,56.5,25.5,56.3z"/>
			<path class="st1" d="M20.1,50.9c0-0.2-0.2-0.3-0.4-0.3c-0.6-0.7-1.3-1.5-2.7-1.7c0.7,0.3,1.8,1,2.6,1.7c-0.2,0-0.3,0.2-0.3,0.4
				c0,0.2,0.2,0.3,0.4,0.3C20,51.3,20.2,51.1,20.1,50.9z"/>
			<path class="st1" d="M20.2,48.4c-0.1-0.3-0.3-0.4-0.5-0.4c0,0,0,0,0,0c-0.3-1.2-0.6-2.1-1.9-3c0.7,0.9,1.4,2.1,1.9,3
				c-0.2,0.1-0.3,0.3-0.3,0.5c0.1,0.2,0.3,0.4,0.5,0.4C20.1,48.9,20.2,48.6,20.2,48.4z"/>
			<path class="st1" d="M21.5,53c0-0.2-0.2-0.3-0.4-0.3c-0.1,0-0.2,0.1-0.2,0.1c-1.2-1-2-1-2.6-1.1c0.4,0.1,1.7,0.5,2.6,1.1
				c0,0.1-0.1,0.1,0,0.2c0,0.2,0.2,0.3,0.4,0.3C21.4,53.4,21.6,53.2,21.5,53z"/>
			<path class="st1" d="M22.5,54.5c-0.1-0.3-0.3-0.5-0.6-0.4c-0.3,0.1-0.5,0.3-0.4,0.6c0.1,0.3,0.3,0.5,0.6,0.4
				C22.4,55,22.6,54.8,22.5,54.5z"/>
			<path class="st1" d="M23.3,55.4c0-0.2-0.2-0.3-0.4-0.3c-0.1,0-0.2,0.1-0.3,0.2c-1-0.1-2.1,0-3.1,0.5c1.1-0.2,2.2-0.5,3.1-0.5l0,0
				c0,0,0,0.1,0,0.2c0,0.2,0.2,0.3,0.4,0.3C23.2,55.8,23.3,55.6,23.3,55.4z"/>
			<path class="st1" d="M24.3,56c-0.1-0.3-0.3-0.4-0.6-0.4c-0.3,0.1-0.4,0.3-0.4,0.6c0,0,0,0,0,0c-0.8,0-2,0.2-2.8,1.1
				c0.8-0.5,2.1-1,2.8-1.1c0,0,0,0,0,0c0.1,0.2,0.3,0.4,0.6,0.3C24.2,56.5,24.4,56.2,24.3,56z"/>
			<path class="st1" d="M22.4,46.7c-1.7,0.7-2.5,2.9-1.6,4.4C21.6,50,23.1,49.7,22.4,46.7z M20.8,51c-0.2-0.9,0.3-3.2,1.1-3.6
				C21.4,48.5,21.2,49.6,20.8,51z"/>
			<path class="st1" d="M20.6,43.5c-0.5,0.2-1.3,1-1.7,2c0.1,0.2,0.2,0.3,0.3,0.5c0.2-0.7,0.6-1.6,1-2c-0.3,0.5-0.7,1.5-0.8,2.3
				c0.2,0.5,0.3,0.9,0.3,1.4C20.8,46.7,21.2,45.1,20.6,43.5z"/>
			<path class="st1" d="M31,58.4c2.2,1.6,3.4,3.9,3.7,5.7c-0.3-0.2-0.8-0.4-1.1-0.3c-0.3-1.9-1.3-3.5-2.9-4.7
				C30.8,58.7,30.9,58.5,31,58.4z"/>
			<path class="st1" d="M29,57.8c0.1-0.2,0.5-0.2,0.7-0.1c-0.1,0.3-0.1,0.7-0.1,0.9C29.1,58.6,29,58.1,29,57.8z"/>
			<path class="st1" d="M29.8,57.8c0.3,0,0.4-0.2,0.5-0.3c0.1-0.1,0.2-0.2,0.2,0c0,0.2,0,0.3-0.1,0.4C30.2,57.9,30,57.9,29.8,57.8z"
				/>
			<path class="st1" d="M29.9,58.3c0,0.2-0.1,0.3-0.2,0.5c-0.1,0.1-0.2,0.2-0.3,0.2c0.1,0.1,0.3,0.2,0.5,0.2c0.2,0,0.2,0,0.2-0.1
				C30.1,58.8,30,58.4,29.9,58.3z"/>
		</g>
	</g>
</g>
</svg>
